<?xml version="1.0" encoding="UTF-8"?><svg id="Capa_1" xmlns="http://www.w3.org/2000/svg" width="180" height="40" xmlns:xlink="http://www.w3.org/1999/xlink" viewBox="0 0 180 40"><defs><style>.cls-1{fill:none;}.cls-2{fill:#fcd100;}.cls-3{fill:#D7192D;}.cls-4{clip-path:url(#clippath);}</style><clipPath id="clippath"><path class="cls-1" d="M136.7,30.2c11.5-11.6,27.9-18,38.8-18.3l-3.7,9.7c-4.4,10.4-12.1,18-44.4,18l9.3-9.4Z"/></clipPath></defs><path class="cls-2" d="M136.7,30.2c11.5-11.6,27.9-18,38.8-18.3l-3.7,9.7c-4.4,10.4-12.1,18-44.4,18l9.3-9.4"/><g class="cls-4"><rect class="cls-2" x="123.68" y="1.73" width="55.5" height="48.1" transform="translate(7.4 79.17) rotate(-30)"/></g><path class="cls-3" d="M148,18.8l10.5-10.6c5-5,7-8.2,21.6-8.2l-2.4,6.3c-9.9,1.1-19.8,5.4-29.8,12.6"/><path class="cls-3" d="M59.1,23.7h-18.9c-.3-3.1-.5-6.9-.5-9.9s.2-6.8.5-9.9h18.8c-.1,1.3-.2,2.6-.3,3.8h-12.9c-.1,1.3-.2,3-.2,4.3h12v3.6h-12c0,1.5,0,2.9.1,4.4h13c0,1.2.1,2.6.2,3.8M87.7,23.7h-6.6c-.7-1.8-1.6-3.4-2.4-4.7-.8-1.2-1.5-2.2-2-2.8h-6.5c0,2.5.2,5.2.5,7.5h-5.9c-.3-3.1-.5-6.9-.5-9.9s.2-6.8.5-9.9h13.3c3.7,0,5.6.8,6.7,2,.9,1,1.5,2.4,1.5,3.9,0,2.5-1.5,4.8-4.3,5.7.8.8,1.7,1.8,2.5,3,1.5,2.1,2.3,3.6,3.3,5.2h-.1ZM78.7,12.8c1.1-.7,1.6-1.7,1.6-2.8s-.2-1.3-.6-1.7c-.6-.7-1.6-1-3.7-1h-5.6c-.1,1.9-.2,3.7-.2,5.4h8.5v.1ZM5.8,3.9H.7C.4,7.1.2,10.6.2,14s.2,6.8.5,9.7h5.1c.3-2.9.5-6.3.5-9.7s-.1-6.9-.5-10.1ZM122.6,13.1c1.9,3.7,3.6,7.6,4.7,10.6h-6.3c-.5-1.3-.9-2.4-1.4-3.7h-11c-.6,1.3-1,2.4-1.4,3.7h-6.3c1.1-3,2.9-7,4.8-10.6,1.9-3.7,3.8-7.1,5.3-9.2h6.2c1.5,2.1,3.4,5.5,5.3,9.2h.1ZM118.4,16.6c-1.4-3.1-2.7-5.7-4.1-8.3-1.5,2.6-2.7,5.2-4.1,8.3h8.2ZM25,23.7c4,0,6.7-.4,8.3-1.6,1.3-.9,1.9-2.6,1.9-4.3s-1.4-4-3.6-4.8c1.7-.8,2.6-2.5,2.6-4.1s-.5-2.7-1.4-3.5c-1.7-1.4-4.8-1.6-8.2-1.6h-11.3c-.3,3.1-.5,6.9-.5,9.9s.2,6.8.5,9.9h11.7v.1ZM18.9,7.5h5.4c2.1,0,2.9.2,3.5.8.4.4.5,1,.5,1.6s-.3,1.7-1.1,2.2h-8.6c0-1.5,0-3.1.2-4.6h.1ZM26.4,15.4c1.1,0,1.7.2,2.2.6.5.4.7,1,.7,1.6s-.2,1.3-.7,1.7c-.6.6-1.4.8-3,.8h-6.8c-.1-1.6-.2-3.2-.2-4.8h7.7l.1.1ZM97.3,3.9h-5.1c-.3,3.2-.5,6.7-.5,10.1s.2,6.8.5,9.7h5.1c.3-2.9.5-6.3.5-9.7s-.1-6.9-.5-10.1Z"/></svg>